<?xml version="1.0" standalone="no"?>
<!DOCTYPE svg PUBLIC "-//W3C//DTD SVG 20010904//EN"
 "http://www.w3.org/TR/2001/REC-SVG-20010904/DTD/svg10.dtd">
<svg version="1.0" xmlns="http://www.w3.org/2000/svg"
 width="500.000000pt" height="500.000000pt" viewBox="0 0 500.000000 500.000000"
 preserveAspectRatio="xMidYMid meet">

<g transform="translate(0.000000,500.000000) scale(0.100000,-0.100000)"
fill="#000000" stroke="none">
<path d="M4230 3278 c-105 -52 -233 -217 -357 -464 -62 -123 -70 -134 -95
-134 -28 0 -37 -17 -18 -36 7 -7 -15 -41 -66 -103 -41 -51 -80 -105 -85 -119
l-10 -27 31 30 c18 17 55 58 83 92 28 35 52 62 53 60 2 -2 -30 -95 -70 -208
-41 -112 -69 -206 -64 -207 16 -7 54 7 81 29 15 11 69 75 120 142 50 67 119
150 151 185 84 90 166 134 166 90 0 -7 -16 -42 -35 -79 -45 -87 -85 -208 -85
-256 0 -56 31 -100 75 -109 88 -16 205 56 336 208 32 38 59 67 59 65 0 -3 -7
-24 -15 -48 -30 -82 -36 -129 -25 -165 23 -67 99 -80 196 -34 70 35 274 243
274 282 0 19 -18 5 -51 -38 -63 -86 -246 -234 -289 -234 -5 0 -19 9 -30 20
-41 41 -21 125 79 330 61 125 64 155 11 155 -32 0 -37 -4 -60 -51 -14 -28 -31
-64 -37 -80 -37 -88 -245 -309 -335 -355 -47 -24 -53 -24 -78 1 -43 43 -19
156 66 316 89 166 70 231 -48 167 -51 -27 -255 -219 -347 -327 -22 -27 -43
-47 -45 -45 -3 2 19 67 47 143 l52 139 95 75 c257 204 390 336 440 435 38 77
38 110 1 148 -24 24 -38 29 -78 29 -29 0 -66 -9 -93 -22z m153 -32 c19 -49
-74 -195 -208 -330 -90 -90 -253 -222 -262 -212 -8 7 83 178 144 271 101 153
236 284 294 285 15 0 29 -6 32 -14z"/>
<path d="M508 3245 c-93 -16 -136 -29 -211 -67 -70 -35 -132 -89 -157 -138
-25 -50 -43 -151 -31 -182 22 -59 117 -134 159 -126 12 2 5 10 -23 27 -62 37
-84 61 -91 99 -27 144 178 294 455 332 132 18 421 11 689 -16 l53 -6 -26 -29
c-53 -63 -72 -226 -32 -266 23 -23 32 -9 17 26 -26 64 29 167 137 253 48 38
63 56 61 72 -2 16 -11 22 -40 24 -28 2 -43 -3 -70 -26 l-33 -30 -145 19 c-387
51 -561 59 -712 34z"/>
<path d="M845 3083 c-79 -41 -175 -162 -175 -221 0 -23 -32 -93 -106 -233
-125 -235 -185 -376 -187 -438 -2 -42 0 -45 31 -53 45 -12 71 5 132 86 59 79
58 104 -2 34 -38 -46 -78 -63 -92 -40 -25 40 159 400 310 607 102 141 173 205
226 205 44 0 34 26 -19 54 -40 20 -79 20 -118 -1z"/>
<path d="M4708 2914 c-69 -56 -81 -77 -52 -88 50 -19 91 9 114 80 22 64 9 66
-62 8z"/>
<path d="M1915 2893 c-100 -53 -180 -170 -130 -189 22 -9 19 -17 -26 -92 -97
-160 -271 -347 -366 -393 -82 -39 -116 5 -93 118 16 75 41 138 81 203 34 55
32 63 -19 76 -19 5 -49 -20 -195 -162 -263 -258 -347 -301 -355 -183 -2 36 4
55 32 101 77 129 176 218 316 286 91 44 182 51 220 17 22 -20 22 -20 19 0 -2
10 -20 30 -39 43 -102 70 -349 -33 -523 -217 -129 -137 -135 -238 -16 -299 84
-44 153 -10 312 151 59 60 107 107 107 105 0 -1 -7 -25 -15 -52 -8 -27 -15
-80 -15 -118 0 -64 2 -72 30 -100 27 -27 36 -30 75 -26 24 3 65 16 92 29 53
26 217 179 261 243 15 23 63 92 107 154 l80 113 50 -6 c130 -18 135 -49 26
-176 -98 -115 -131 -178 -131 -252 0 -79 24 -107 93 -107 70 0 135 38 243 142
l84 81 0 -52 c0 -84 32 -125 113 -145 78 -19 178 57 272 208 26 42 49 75 50
74 2 -2 -3 -28 -11 -58 -8 -30 -14 -85 -14 -123 0 -63 2 -71 31 -99 28 -28 34
-30 79 -25 27 3 68 16 92 28 60 30 226 199 282 288 l48 74 36 -36 c20 -19 55
-44 77 -55 62 -31 95 -66 95 -102 0 -69 -79 -164 -179 -214 -58 -30 -118 -34
-128 -10 -8 21 17 64 44 77 13 6 23 14 23 19 0 15 -77 -30 -99 -58 -41 -52
-22 -84 49 -84 187 1 411 166 371 273 -10 25 -53 57 -174 128 -91 53 -88 97
14 194 130 124 368 183 344 86 -4 -14 -13 -34 -22 -43 -29 -33 -8 -41 24 -9
62 62 50 129 -28 152 -134 41 -404 -101 -443 -231 -18 -62 -39 -101 -92 -176
-74 -104 -234 -244 -297 -259 -19 -5 -31 -1 -47 15 -20 20 -22 30 -17 79 10
91 32 149 107 279 38 68 70 127 70 131 0 10 -54 31 -79 31 -10 0 -31 -26 -51
-62 -111 -202 -268 -394 -365 -444 -52 -27 -57 -28 -82 -14 -78 44 -1 253 146
394 22 22 38 43 35 48 -3 4 -29 8 -59 8 l-54 0 -44 -62 c-24 -35 -57 -85 -73
-112 -54 -94 -232 -262 -303 -287 -24 -9 -35 -8 -47 2 -42 34 23 207 126 339
86 110 111 152 99 166 -8 10 -48 14 -135 16 l-124 3 43 70 c56 90 61 105 39
105 -9 -1 -30 -8 -47 -17z"/>
</g>
</svg>
